# xmcd
#
# Track frame offsets: 
#        150
#        22575
#        34870
#        59813
#        82675
#        108763
#        132205
#        152913
#        170123
#
# Disc length: 2374 seconds
#
# Revision: 2
# Processed by: cddbd v1.5.1PL0 Copyright (c) Steve Scherf et al.
# Submitted via: ExactAudioCopy v0.95a5
#
DISCID=68094409
DTITLE=Frank Lorentzen - Summer vision
DYEAR=1900
DGENRE=New Age
TTITLE0=Vision 1
TTITLE1=Vision 2
TTITLE2=Vision 3
TTITLE3=Vision 4
TTITLE4=Vision 5
TTITLE5=Vision 6
TTITLE6=Vision 7
TTITLE7=Vision 8
TTITLE8=Vision 9
EXTD=www.fonix.dk
EXTT0=
EXTT1=
EXTT2=
EXTT3=
EXTT4=
EXTT5=
EXTT6=
EXTT7=
EXTT8=
PLAYORDER=
